# xmcd CD database file
# Copyright 1993-1996 (C) Ti Kan
#
# Track frame offsets:
#    150
#    6012
#    12412
#    24347
#    29622
#    36430
#    41270
#    44785
#    51525
#    62407
#    76470
#    83172
#    92510
#    100155
#    104507
#    114812
#    128832
#    137717
#    145035
#    157772
#    166982
#    177627
#    185620
#    193922
#    200377
#    212140
#    222287
#    227517
#    233817
#    236762
#    243545
#    248990
#    269560
#    293915
#    309545
#
# Disc length: 4617 seconds
#
# Revision: 0
# Processed by: cddbd v1.4b41PL1 Copyright (c) Steve Scherf et al.
# Submitted via: MyCDplayer 2.1.4  (wjohn@fix.net)
#
DISCID=f5120723
DTITLE=Michel Legrand Erato4509-96386 - Four Piano Blues  DDD
DYEAR=1900
DGENRE=
TTITLE0=Conlon Nancarrow (1912-), Prelude for Piano
TTITLE1=Geo Gershwin, 3 Preludes
TTITLE2=Gershwin (1898-1937), 3 Preludes
TTITLE3=Gershwin, 3 Preludes
TTITLE4=Amy Beach (1867-1944), 5 Improvs op148
TTITLE5=Amy Beach, 5 Improvs op148
TTITLE6=Amy Beach, 5 Improvs op148
TTITLE7=Amy Beach, 5 Improvs op148
TTITLE8=Amy Beach, 5 Improvs op148
TTITLE9=Scott Joplin (1868-1917), Maple Leaf Rag
TTITLE10=Aaron Copland (1900-1990), Four Piano Blues
TTITLE11=Copland, Four Piano Blues
TTITLE12=Copland, Four Piano Blues
TTITLE13=Copland, Four Piano Blues
TTITLE14=Morton Gould (1913-), Boogie-Woogie Etude
TTITLE15=L. Gottschalk (1829-1869), Manchega, op38
TTITLE16=Ed MacDowell(1860-1908), N England Idyls op62
TTITLE17=MacDowell, New England Idyls
TTITLE18=MacDowell, New England Idyls
TTITLE19=MacDowell, New England Idyls
TTITLE20=MacDowell, New England Idyls
TTITLE21=MacDowell, New England Idyls
TTITLE22=MacDowell, New England Idyls
TTITLE23=MacDowell, New England Idyls
TTITLE24=MacDowell, New England Idyls
TTITLE25=MacDowell, New England Idyls
TTITLE26=Leon Bernstein (1918-1990), 5 Anniversaries
TTITLE27=Leonard Bernstein, 5 Anniversaries
TTITLE28=Leonard Bernstein, 5 Anniversaries
TTITLE29=Leonard Bernstein, 5 Anniversaries
TTITLE30=Leonard Bernstein, 5 Anniversaries
TTITLE31=Scott Joplin, The Entertainer
TTITLE32=Samuel Barber (1910-1981), Ballad op46
TTITLE33=Louis Gottschalk, Le Banjo op15
TTITLE34=John Cage (1912-1992), Bacchanale
EXTD=
EXTT0=
EXTT1=
EXTT2=
EXTT3=
EXTT4=
EXTT5=
EXTT6=
EXTT7=
EXTT8=
EXTT9=
EXTT10=
EXTT11=
EXTT12=
EXTT13=
EXTT14=
EXTT15=
EXTT16=
EXTT17=
EXTT18=
EXTT19=
EXTT20=
EXTT21=
EXTT22=
EXTT23=
EXTT24=
EXTT25=
EXTT26=
EXTT27=
EXTT28=
EXTT29=
EXTT30=
EXTT31=
EXTT32=
EXTT33=
EXTT34=
PLAYORDER=
